<?xml version="1.0" encoding="UTF-8" standalone="no"?>
<!-- Created with Inkscape (http://www.inkscape.org/) -->

<svg
   width="1024"
   height="768"
   viewBox="0 0 1024 768"
   version="1.1"
   id="svg5"
   inkscape:version="1.1.2 (0a00cf5339, 2022-02-04)"
   sodipodi:docname="vafelka-blog-linkedin-featured.svg"
   xmlns:inkscape="http://www.inkscape.org/namespaces/inkscape"
   xmlns:sodipodi="http://sodipodi.sourceforge.net/DTD/sodipodi-0.dtd"
   xmlns="http://www.w3.org/2000/svg"
   xmlns:svg="http://www.w3.org/2000/svg">
  <sodipodi:namedview
     id="namedview7"
     pagecolor="#505050"
     bordercolor="#ffffff"
     borderopacity="1"
     inkscape:pageshadow="0"
     inkscape:pageopacity="0"
     inkscape:pagecheckerboard="1"
     inkscape:document-units="px"
     showgrid="false"
     inkscape:snap-object-midpoints="false"
     inkscape:zoom="1.0182292"
     inkscape:cx="490.0665"
     inkscape:cy="321.14578"
     inkscape:window-width="1920"
     inkscape:window-height="965"
     inkscape:window-x="0"
     inkscape:window-y="0"
     inkscape:window-maximized="1"
     inkscape:current-layer="layer1" />
  <defs
     id="defs2" />
  <g
     inkscape:label="Layer 1"
     inkscape:groupmode="layer"
     id="layer1">
    <rect
       style="fill:#080808;fill-opacity:1;stroke-width:3.92408"
       id="rect846"
       width="750"
       height="500"
       x="0"
       y="0" />
    <g
       style="fill:none"
       id="g5310"
       transform="matrix(9.509039,0,0,9.509039,13.096186,64.611703)">
      <path
         d="m 7.23061,14.5174 c -2.22,-0.05 -4.22,1.33 -4.96,3.41 -0.39,1.03 -0.36,2.18 0.1,3.18 0.32,0.71 0.84,1.31 1.5,1.73 l 8.64999,5.21 c 2.12,1.26 4.76,1.26 6.89,0 l 8.65,-5.21 c 0.65,-0.42 1.17,-1.02 1.5,-1.73 0.46,-1 0.5,-2.15 0.1,-3.18 -0.74,-2.09 -2.74,-3.47 -4.96,-3.42 -5.3404,0.15 -11.6057,0.1418 -17.46999,0.01 z"
         fill="#d3883e"
         id="path5265" />
      <path
         d="m 14.0707,9.5175 -9.55,5.66 c -1.4,0.83 -1.4,2.85 0,3.67 l 9.55,5.66 c 1.17,0.69 2.62,0.69 3.79,0 l 9.55,-5.66 c 1.4,-0.83 1.4,-2.85 0,-3.67 l -9.55,-5.66 c -1.17,-0.69 -2.62,-0.69 -3.79,0 z"
         fill="#f3c07b"
         id="path5267" />
      <path
         d="m 14.0206,11.7575 1.46,-0.86 c 0.3,-0.18 0.67,-0.18 0.97,0 l 1.45,0.86 c 0.41,0.25 0.41,0.85 0,1.09 l -1.46,0.86 c -0.29,0.18 -0.66,0.18 -0.96,0 l -1.46,-0.86 c -0.41,-0.25 -0.41,-0.85 0,-1.09 z"
         fill="#b97028"
         id="path5269" />
      <path
         d="m 19.2406,13.0674 -1.46,0.86 c -0.41,0.24 -0.41,0.84 0,1.09 l 1.46,0.86 c 0.3,0.18 0.67,0.18 0.96,0 l 1.46,-0.86 c 0.41,-0.24 0.41,-0.84 0,-1.09 l -1.46,-0.86 c -0.29,-0.18 -0.66,-0.18 -0.96,0 z"
         fill="#b97028"
         id="path5271" />
      <path
         d="m 11.7306,13.2175 -1.46,0.86 c -0.41,0.24 -0.41,0.84 0,1.09 l 1.46,0.86 c 0.3,0.18 0.67,0.18 0.96,0 l 1.46,-0.86 c 0.41,-0.24 0.41,-0.84 0,-1.09 l -1.46,-0.86 c -0.3,-0.18 -0.67,-0.18 -0.96,0 z"
         fill="#b97028"
         id="path5273" />
      <path
         d="m 14.0206,16.2474 1.46,-0.86 c 0.3,-0.18 0.67,-0.18 0.96,0 l 1.46,0.86 c 0.41,0.25 0.41,0.85 0,1.09 l -1.46,0.86 c -0.29,0.18 -0.66,0.18 -0.96,0 l -1.46,-0.86 c -0.41,-0.25 -0.41,-0.85 0,-1.09 z"
         fill="#b97028"
         id="path5275" />
      <path
         d="m 6.51063,16.3975 1.45999,-0.86 c 0.3,-0.18 0.67,-0.18 0.96,0 l 1.45998,0.86 c 0.41,0.25 0.41,0.85 0,1.09 l -1.45998,0.86 c -0.29,0.18 -0.66,0.18 -0.96,0 l -1.45999,-0.86 c -0.41,-0.25 -0.41,-0.85 0,-1.09 z"
         fill="#b97028"
         id="path5277" />
      <path
         d="m 11.7306,17.7074 -1.46,0.86 c -0.41,0.24 -0.41,0.84 0,1.09 l 1.46,0.86 c 0.3,0.18 0.67,0.18 0.96,0 l 1.46,-0.86 c 0.41,-0.24 0.41,-0.84 0,-1.09 l -1.46,-0.86 c -0.3,-0.18 -0.67,-0.18 -0.96,0 z"
         fill="#b97028"
         id="path5279" />
      <path
         d="m 15.4806,19.8774 -1.46,0.86 c -0.41,0.24 -0.41,0.84 0,1.09 l 1.46,0.86 c 0.3,0.18 0.67,0.18 0.96,0 l 1.46,-0.86 c 0.41,-0.24 0.41,-0.84 0,-1.09 l -1.46,-0.86 c -0.29,-0.18 -0.66,-0.18 -0.96,0 z"
         fill="#b97028"
         id="path5281" />
      <path
         d="m 19.2406,17.5574 -1.46,0.86 c -0.41,0.24 -0.41,0.84 0,1.09 l 1.46,0.86 c 0.3,0.18 0.67,0.18 0.96,0 l 1.46,-0.86 c 0.41,-0.24 0.41,-0.84 0,-1.09 l -1.46,-0.86 c -0.29,-0.18 -0.66,-0.18 -0.96,0 z"
         fill="#b97028"
         id="path5283" />
      <path
         d="m 21.5406,16.0974 1.46,-0.86 c 0.29,-0.18 0.66,-0.18 0.96,0.01 l 1.46,0.86 c 0.41,0.25 0.41,0.85 0,1.09 l -1.46,0.86 c -0.29,0.18 -0.66,0.18 -0.96,0 l -1.46,-0.87 c -0.41,-0.25 -0.41,-0.85 0,-1.09 z"
         fill="#b97028"
         id="path5285" />
      <path
         d="m 17.3206,15.3575 -0.43,-0.26 c -0.57,-0.34 -1.28,-0.34 -1.85,0 l -0.44,0.26 h -3.2 v 2.04 c 0,0.4 0.19,0.79 0.58,1.02 l 3.06,1.81 c 0.57,0.34 1.28,0.34 1.85,0 l 3.06,-1.81 c 0.39,-0.23 0.58,-0.63 0.58,-1.02 v -2.04 z"
         fill="#f9c23c"
         id="path5287" />
      <path
         d="m 15.0405,12.5875 -3.06,1.82 c -0.78,0.46 -0.78,1.59 0,2.05 l 3.06,1.81 c 0.57,0.34 1.28,0.34 1.85,0 l 3.06,-1.81 c 0.78,-0.46 0.78,-1.59 0,-2.05 l -3.06,-1.81 c -0.57,-0.35 -1.28,-0.35 -1.85,-0.01 z"
         fill="#fcd53f"
         id="path5289" />
    </g>
    <text
       xml:space="preserve"
       style="font-weight:bold;font-family:sans-serif;-inkscape-font-specification:'sans-serif Bold';fill:#080808;fill-opacity:1;stroke-width:3.263"
       x="588.58698"
       y="407.3555"
       id="text6392"><tspan
         sodipodi:role="line"
         id="tspan6390"
         x="588.58698"
         y="407.3555">Vafelka blog</tspan></text>
    <text
       xml:space="preserve"
       style="font-weight:bold;font-size:53.3333px;font-family:sans-serif;-inkscape-font-specification:'sans-serif Bold';fill:#d3d3d3;fill-opacity:1;stroke-width:3.263"
       x="339.01532"
       y="261.89386"
       id="text10414"><tspan
         sodipodi:role="line"
         id="tspan10412"
         x="339.01532"
         y="261.89386"
         style="font-size:53.3333px">Vafelka blog</tspan></text>
  </g>
</svg>
